<svg width="32" height="32" viewBox="0 0 32 32" fill="none" xmlns="http://www.w3.org/2000/svg">
    <path d="M16 0C24.8225 0 32 7.17969 32 16C32 24.8527 24.8225 32 16 32C7.17746 32 0 24.8527 0 16C0 7.17969 7.17746 0 16 0Z" fill="#FF318B"/>
    <path d="M16 0C14.4118 0 12.8794 0.239955 11.4285 0.674107C18.0301 2.64732 22.8571 8.76786 22.8571 16C22.8571 23.2589 18.0301 29.3627 11.4285 31.3281C12.8794 31.7623 14.4118 32 16 32C24.8225 32 32 24.8527 32 16C32 7.17969 24.8225 0 16 0Z" fill="#E62479"/>
    <path d="M16.0681 25.1361C14.8047 25.1361 13.7712 24.1138 13.7712 22.8504C13.7712 21.5859 14.7813 20.5647 16.0436 20.5647H16.0681C17.3304 20.5647 18.3538 21.5859 18.3538 22.8504C18.3538 24.1138 17.3304 25.1361 16.0681 25.1361Z" fill="white"/>
    <path d="M16 18.2835C14.7355 18.2835 13.7143 17.2612 13.7143 15.9978V9.13618C13.7143 7.87167 14.7355 6.85046 16 6.85046C17.2645 6.85046 18.2857 7.87167 18.2857 9.13618V15.9978C18.2857 17.2612 17.2645 18.2835 16 18.2835Z" fill="white"/>
</svg>
