<svg width="32" height="32" viewBox="0 0 32 32" fill="none" xmlns="http://www.w3.org/2000/svg">
    <path d="M16 0C24.8225 0 32 7.17969 32 16C32 24.8527 24.8225 32 16 32C7.17746 32 0 24.8527 0 16C0 7.17969 7.17746 0 16 0Z" fill="#FF318B"/>
    <path d="M16 0C14.4118 0 12.8794 0.239955 11.4285 0.674107C18.0301 2.64732 22.8571 8.76786 22.8571 16C22.8571 23.2589 18.0301 29.3627 11.4285 31.3281C12.8794 31.7623 14.4118 32 16 32C24.8225 32 32 24.8527 32 16C32 7.17969 24.8225 0 16 0Z" fill="#E62479"/>
    <path d="M23.6164 12.3211L14.5118 21.516C13.8989 22.1613 12.8484 22.1613 12.2356 21.516L8.38362 17.5638C7.85838 16.9992 7.85838 16.112 8.47116 15.5474C9.08399 15.0634 10.047 15.0634 10.6598 15.628L13.3737 18.451L21.3402 10.4659C21.953 9.90132 22.916 9.82067 23.5288 10.3853C24.1416 10.8692 24.1416 11.8371 23.6164 12.3211Z" fill="white"/>
</svg>
