<svg width="24" height="24" viewBox="0 0 24 24" fill="none" xmlns="http://www.w3.org/2000/svg">
    <path d="M0.423115 0.423122C0.987268 -0.141031 1.90194 -0.141031 2.46609 0.423122L23.5769 21.5339C24.141 22.0981 24.141 23.0127 23.5769 23.5769C23.0127 24.141 22.0981 24.141 21.5339 23.5769L0.423115 2.4661C-0.141038 1.90195 -0.141038 0.987275 0.423115 0.423122Z" fill="#2E2E2E"/>
    <path d="M23.5771 0.423115C23.0129 -0.141038 22.0983 -0.141038 21.5341 0.423115L0.423333 21.5339C-0.14082 22.0981 -0.14082 23.0127 0.423333 23.5769C0.987486 24.141 1.90216 24.141 2.46631 23.5769L23.5771 2.46609C24.1413 1.90194 24.1413 0.987268 23.5771 0.423115Z" fill="#2E2E2E"/>
</svg>
