<svg width="89" height="100" viewBox="0 0 89 100" fill="none" xmlns="http://www.w3.org/2000/svg">
    <g clip-path="url(#clip0)">
        <path d="M88.3835 60.7119L81.3842 46.964C81.0506 46.309 80.3778 45.8965 79.6427 45.8965H44.336H9.02898C8.29385 45.8965 7.62106 46.309 7.28749 46.964L0.288106 60.7119C-0.0202509 61.3178 0.00827923 62.0403 0.363534 62.6199C0.718789 63.1994 1.34977 63.5525 2.0294 63.5525H4.46851V98.0457C4.46851 99.1248 5.34336 99.9998 6.42261 99.9998H82.243C83.3222 99.9998 84.1971 99.1248 84.1971 98.0457V63.5527H86.6419C87.3217 63.5527 87.9527 63.1994 88.3077 62.62C88.6634 62.0403 88.6919 61.3178 88.3835 60.7119ZM78.4448 49.8047L83.4545 59.6443H52.5333L47.5235 49.8047H78.4448ZM10.227 49.8047H41.1483L36.1386 59.6443H5.21732L10.227 49.8047ZM80.2893 96.0916H46.2901V85.2614C46.2901 84.1824 45.4153 83.3073 44.336 83.3073C43.2568 83.3073 42.3819 84.1824 42.3819 85.2614V96.0916H8.3771V63.5527H37.3366C38.0718 63.5527 38.7446 63.1404 39.0781 62.4852L42.3819 55.9959V67.7138C42.3819 68.7929 43.2568 69.6679 44.336 69.6679C45.4153 69.6679 46.2901 68.7929 46.2901 67.7138V55.9959L49.5939 62.4852C49.9275 63.1404 50.6003 63.5527 51.3354 63.5527H80.2893V96.0916Z" fill="#2E2E2E"/>
        <path d="M27.6259 85.3906H16.4989C15.4196 85.3906 14.5448 86.2657 14.5448 87.3447C14.5448 88.4238 15.4196 89.2988 16.4989 89.2988H27.6259C28.7052 89.2988 29.58 88.4238 29.58 87.3447C29.58 86.2657 28.7052 85.3906 27.6259 85.3906Z" fill="#2E2E2E"/>
        <path d="M44.336 40.1505C55.3931 40.1505 64.389 31.1434 64.389 20.0725C64.3888 9.00449 55.3931 0 44.336 0C33.2758 0 24.2776 9.00449 24.2776 20.0725C24.2776 31.1434 33.2756 40.1505 44.336 40.1505ZM44.336 3.9082C53.2383 3.9082 60.4808 11.1595 60.4808 20.0725C60.4808 28.9887 53.2383 36.2423 44.336 36.2423C35.4308 36.2423 28.1858 28.9887 28.1858 20.0725C28.1858 11.1595 35.4306 3.9082 44.336 3.9082Z" fill="#E62479"/>
        <path d="M35.575 23.0037L40.7763 27.4126C41.1305 27.7129 41.5788 27.8761 42.0398 27.8761C42.0953 27.8761 42.151 27.8737 42.2067 27.869C42.7253 27.8245 43.2046 27.5752 43.5386 27.1759L53.3267 15.4775C54.0192 14.65 53.9096 13.4175 53.082 12.7248C52.2543 12.0326 51.022 12.1419 50.3295 12.9696L41.8033 23.1597L38.1025 20.0224C37.2792 19.3246 36.046 19.4258 35.3484 20.2494C34.6502 21.0729 34.7518 22.3057 35.575 23.0037Z" fill="#E62479"/>
        <path d="M5.94714 22.0264H14.4017C15.481 22.0264 16.3558 21.1513 16.3558 20.0723C16.3558 18.9932 15.481 18.1182 14.4017 18.1182H5.94714C4.86789 18.1182 3.99304 18.9932 3.99304 20.0723C3.99304 21.1513 4.86789 22.0264 5.94714 22.0264Z" fill="#E62479"/>
        <path d="M5.03563 8.42895L13.4902 12.888C13.781 13.0414 14.0927 13.1141 14.4003 13.1141C15.1018 13.1141 15.7802 12.7352 16.1304 12.0712C16.6338 11.1166 16.2682 9.93459 15.3136 9.43121L6.85881 4.97215C5.90462 4.46878 4.72219 4.83419 4.21882 5.78897C3.71544 6.74354 4.08106 7.92558 5.03563 8.42895Z" fill="#E62479"/>
        <path d="M4.21817 34.3546C4.56815 35.019 5.24662 35.3985 5.94872 35.3985C6.25571 35.3985 6.56739 35.326 6.85777 35.173L15.3124 30.7196C16.2671 30.2166 16.6335 29.0348 16.1306 28.08C15.6276 27.125 14.4457 26.7588 13.491 27.2616L5.03635 31.715C4.08158 32.218 3.71538 33.3998 4.21817 34.3546Z" fill="#E62479"/>
        <path d="M74.2646 22.0264H82.7192C83.7985 22.0264 84.6733 21.1513 84.6733 20.0723C84.6733 18.9932 83.7985 18.1182 82.7192 18.1182H74.2646C73.1854 18.1182 72.3105 18.9932 72.3105 20.0723C72.3105 21.1513 73.1854 22.0264 74.2646 22.0264Z" fill="#E62479"/>
        <path d="M74.2662 13.1142C74.5735 13.1142 74.8854 13.0415 75.1762 12.8881L83.6308 8.42909C84.5854 7.92571 84.951 6.74368 84.4476 5.7891C83.944 4.83452 82.7622 4.46852 81.8076 4.97229L73.353 9.43134C72.3984 9.93472 72.0328 11.1168 72.5362 12.0713C72.8864 12.7353 73.5644 13.1142 74.2662 13.1142Z" fill="#E62479"/>
        <path d="M73.3538 30.7197L81.8084 35.1731C82.099 35.3261 82.4105 35.3986 82.7175 35.3986C83.4196 35.3986 84.098 35.0193 84.448 34.3547C84.951 33.4 84.5846 32.2181 83.6298 31.7151L75.1752 27.2617C74.2203 26.7588 73.0386 27.125 72.5356 28.0801C72.0327 29.0349 72.399 30.2167 73.3538 30.7197Z" fill="#E62479"/>
        <path d="M44.3359 74.5332C43.2567 74.5332 42.3818 75.4082 42.3818 76.4873V76.4984C42.3818 77.5775 43.2567 78.4471 44.3359 78.4471C45.4152 78.4471 46.29 77.5666 46.29 76.4875C46.29 75.4084 45.4152 74.5332 44.3359 74.5332Z" fill="#2E2E2E"/>
    </g>
    <defs>
        <clipPath id="clip0">
            <rect width="88.6719" height="100" fill="white"/>
        </clipPath>
    </defs>
</svg>
