<svg width="42" height="40" viewBox="0 0 42 40" fill="none" xmlns="http://www.w3.org/2000/svg">
    <path d="M19.6452 0C27.1544 0 34.0789 4.43448 37.3427 11.3152C40.2631 13.2345 42 16.4655 42 20C42 23.5345 40.2631 26.7655 37.3427 28.6848C34.0789 35.5655 27.1544 40 19.6452 40C8.81322 40 0 31.0276 0 20C0 8.97241 8.81322 0 19.6452 0ZM19.6452 38.6207C26.6978 38.6207 33.1969 34.4179 36.202 27.9145L36.288 27.729L36.4587 27.6214C39.0803 25.9703 40.6452 23.1214 40.6452 20C40.6452 16.8786 39.0803 14.0297 36.4587 12.3786L36.288 12.271L36.202 12.0855C33.1969 5.58207 26.6978 1.37931 19.6452 1.37931C9.55974 1.37931 1.35484 9.73241 1.35484 20C1.35484 30.2676 9.55974 38.6207 19.6452 38.6207Z" fill="#2E2E2E"/>
    <path d="M30.4738 28.8269C30.0416 28.3469 29.6392 27.8269 29.2788 27.2821L30.402 26.5117C30.7251 26.9993 31.0855 27.4655 31.4723 27.8952C31.9729 28.4524 32.9206 28.3304 33.2654 27.7C34.5478 25.3552 35.2259 22.6924 35.2259 20C35.2259 17.3076 34.5478 14.6448 33.2654 12.3007C32.9213 11.6704 31.9743 11.549 31.4723 12.1055C29.5247 14.2697 28.4517 17.0738 28.4517 20C28.4517 21.8883 28.8818 23.6917 29.73 25.3586L28.5276 25.9931C27.5778 24.1276 27.0968 22.1117 27.0968 20C27.0968 16.7283 28.2966 13.5938 30.4731 11.1731C30.948 10.6469 31.6139 10.3448 32.3015 10.3448C33.1923 10.3448 34.0153 10.8373 34.4496 11.6297C35.8437 14.1786 36.5807 17.0731 36.5807 20C36.5807 22.9269 35.8437 25.8214 34.4496 28.3704C34.0153 29.1628 33.1923 29.6552 32.3015 29.6552C31.6139 29.6552 30.948 29.3531 30.4738 28.8269Z" fill="#2E2E2E"/>
    <path d="M19.6449 2.75864C24.4532 2.75864 29.0529 4.85312 32.2645 8.50553L31.2551 9.42553C28.2996 6.06553 24.0677 4.13795 19.6449 4.13795C11.2808 4.13795 4.43747 10.8828 4.08115 19.3104H5.60872L6.80911 15.6442L8.0935 16.0807L7.03605 19.3104H8.50875L13.4709 13.7986L12.265 11.3428L13.4769 10.7255L14.4511 12.7097L15.7585 11.2579L16.7577 12.1904L13.0129 16.349L14.3691 17.4993L16.4562 15.3745L17.4141 16.3497L15.4144 18.3862L16.692 19.4704L15.8242 20.5304L12.0957 17.3676L9.72337 20.0021L13.2365 23.9366L19.1239 21.5386L20.371 18.3648L21.629 18.8766L20.5059 21.7359L22.658 22.8311L22.0517 24.0648L19.6144 22.8242L14.2092 25.0248L15.8798 26.8966H19.6449V28.2759H16.4061L16.9216 30.8993L15.5932 31.1704L14.953 27.909L11.3634 23.889L10.308 24.9635L11.4447 27.2773L10.2328 27.8945L9.14079 25.6704L7.66605 26.1711L7.23724 24.8635L9.11776 24.2255L10.4516 22.8676L8.50605 20.6897H4.08115C4.43747 29.1173 11.2808 35.8621 19.6449 35.8621C24.0677 35.8621 28.2996 33.9345 31.2551 30.5745L32.2645 31.4945C29.0529 35.1469 24.4532 37.2414 19.6449 37.2414C10.3066 37.2414 2.70937 29.5069 2.70937 20C2.70937 10.4931 10.3066 2.75864 19.6449 2.75864Z" fill="#E62479"/>
</svg>
