<svg width="42" height="30" viewBox="0 0 42 30" fill="none" xmlns="http://www.w3.org/2000/svg">
    <g clip-path="url(#clip0)">
        <path d="M16.6582 15.2442C16.3383 14.9184 15.8182 14.9184 15.4983 15.2442C15.1776 15.5692 15.1776 16.0975 15.4983 16.4225C15.8182 16.7484 16.3383 16.7484 16.6582 16.4225C16.979 16.0975 16.979 15.5692 16.6582 15.2442Z" fill="#E62479"/>
        <path d="M21 16.6667C19.643 16.6667 18.5391 17.7882 18.5391 19.1667C18.5391 20.5452 19.643 21.6667 21 21.6667C22.357 21.6667 23.4609 20.5452 23.4609 19.1667C23.4609 17.7882 22.357 16.6667 21 16.6667ZM21 20C20.5477 20 20.1797 19.6262 20.1797 19.1667C20.1797 18.7072 20.5477 18.3334 21 18.3334C21.4523 18.3334 21.8203 18.7072 21.8203 19.1667C21.8203 19.6262 21.4523 20 21 20Z" fill="#E62479"/>
        <path d="M21 12.5C20.0831 12.5 19.1964 12.6882 18.3648 13.0596C17.9501 13.2448 17.7617 13.7365 17.9439 14.1578C18.1262 14.5792 18.6103 14.7705 19.025 14.5854C19.6472 14.3076 20.3118 14.1667 21 14.1667C23.7139 14.1667 25.9219 16.4097 25.9219 19.1667C25.9219 21.9237 23.7139 24.1667 21 24.1667C18.2861 24.1667 16.0781 21.9237 16.0781 19.1667C16.0781 19.1382 16.078 19.1103 16.0787 19.0818C16.0892 18.6217 15.7306 18.2401 15.2777 18.2294C14.824 18.2179 14.4491 18.583 14.4386 19.0432C14.4376 19.0847 14.4375 19.1252 14.4375 19.1667C14.4375 22.8427 17.3814 25.8333 21 25.8333C24.6186 25.8333 27.5625 22.8427 27.5625 19.1667C27.5625 15.4907 24.6186 12.5 21 12.5Z" fill="#E62479"/>
        <path d="M21 0C20.5469 0 20.1797 0.373083 20.1797 0.833333V5.83333C20.1797 6.29358 20.5469 6.66667 21 6.66667C21.4531 6.66667 21.8203 6.29358 21.8203 5.83333V0.833333C21.8203 0.373083 21.4531 0 21 0Z" fill="#2E2E2E"/>
        <path d="M11.8358 6.17817L8.35604 2.64317C8.03571 2.31775 7.51629 2.31775 7.19588 2.64317C6.87554 2.96859 6.87554 3.49625 7.19588 3.82175L10.6756 7.35675C10.996 7.68217 11.5155 7.68225 11.8358 7.35675C12.1561 7.03134 12.1561 6.50367 11.8358 6.17817Z" fill="#2E2E2E"/>
        <path d="M34.8044 2.64317C34.4841 2.31775 33.9646 2.31775 33.6442 2.64317L30.1645 6.17817C29.8441 6.50359 29.8441 7.03125 30.1645 7.35675C30.4847 7.68217 31.0042 7.68225 31.3246 7.35675L34.8044 3.82175C35.1247 3.49634 35.1247 2.96867 34.8044 2.64317Z" fill="#2E2E2E"/>
        <path d="M41.7946 19.3091C36.5836 13.3159 28.846 8.33331 21.0001 8.33331C13.1531 8.33331 5.41562 13.3171 0.205573 19.3091C-0.0943337 19.6541 -0.0621774 20.1807 0.27735 20.4854C0.616959 20.7901 1.1354 20.7574 1.43522 20.4125C1.61003 20.2114 1.7891 20.0111 1.97047 19.812C6.02405 26.034 13.3722 30 21.0001 30C28.6279 30 35.9761 26.034 40.0297 19.812C40.2111 20.0111 40.3901 20.2115 40.5649 20.4125C40.8639 20.7563 41.3822 20.791 41.7228 20.4854C42.0623 20.1807 42.0945 19.6541 41.7946 19.3091ZM21.0001 28.3333C13.7883 28.3333 6.85207 24.5267 3.14278 18.585C6.06539 15.6757 12.8184 9.99998 21.0001 9.99998C29.1819 9.99998 35.9348 15.6757 38.8574 18.5849C35.1481 24.5267 28.2119 28.3333 21.0001 28.3333Z" fill="#2E2E2E"/>
    </g>
    <defs>
        <clipPath id="clip0">
            <rect width="42" height="30" fill="white"/>
        </clipPath>
    </defs>
</svg>
