<svg width="15" height="20" viewBox="0 0 15 20" fill="none" xmlns="http://www.w3.org/2000/svg">
    <path d="M7.5 0C3.36462 0 0 3.41719 0 7.61719C0 9.2793 0.516923 10.8586 1.49615 12.1836L7.03769 19.7637C7.05154 19.7821 7.07269 19.7891 7.08808 19.8055C7.365 20.1067 7.76462 20.0309 7.96192 19.7637C9.55769 17.6012 12.4827 13.5625 13.6073 12.0391C13.6073 12.0391 13.6077 12.0379 13.6081 12.0371L13.615 12.0277C14.5212 10.7348 15 9.20977 15 7.61719C15 3.41719 11.6354 0 7.5 0ZM7.5 11.7266C5.27346 11.7266 3.45385 9.87852 3.45385 7.61719C3.45385 5.35586 5.27346 3.50781 7.5 3.50781C9.72654 3.50781 11.5462 5.35586 11.5462 7.61719C11.5462 9.87852 9.72654 11.7266 7.5 11.7266Z" fill="#E62479"/>
</svg>
