<svg width="60" height="60" viewBox="0 0 60 60" fill="none" xmlns="http://www.w3.org/2000/svg">
    <path d="M16.1596 48.5295L0 0.588236H7.78055L17.3567 29.1176L29.626 0H30.5237L42.7931 29.1176L52.2195 0.588236H60L43.99 48.5295H43.0923L29.9252 18.0883L17.0573 48.5295H16.1596Z" fill="url(#paint0_linear)"/>
    <path d="M9.07183 51.8485L7.43383 58.2745H5.88583L5.01283 54.8996C4.99483 54.8336 4.97083 54.7345 4.94083 54.6025C4.91683 54.4705 4.88683 54.3265 4.85083 54.1705C4.82083 54.0145 4.79383 53.8676 4.76983 53.7296C4.74583 53.5856 4.72783 53.4745 4.71583 53.3965C4.70983 53.4745 4.69183 53.5856 4.66183 53.7296C4.63783 53.8676 4.61083 54.0145 4.58083 54.1705C4.55083 54.3205 4.52083 54.4645 4.49083 54.6025C4.46083 54.7345 4.43683 54.8365 4.41883 54.9085L3.55483 58.2745H2.00683L0.368835 51.8485H1.70983L2.52883 55.3585C2.56483 55.4965 2.60383 55.6705 2.64583 55.8805C2.68783 56.0905 2.72683 56.3005 2.76283 56.5105C2.79883 56.7205 2.82583 56.8976 2.84383 57.0416C2.86183 56.8916 2.88883 56.7145 2.92483 56.5105C2.96083 56.3005 2.99683 56.0996 3.03283 55.9076C3.07483 55.7096 3.11083 55.5565 3.14083 55.4485L4.07683 51.8485H5.36383L6.29983 55.4485C6.32983 55.5505 6.36283 55.7005 6.39883 55.8985C6.44083 56.0965 6.47983 56.3005 6.51583 56.5105C6.55183 56.7205 6.57883 56.8976 6.59683 57.0416C6.61483 56.8916 6.64183 56.7145 6.67783 56.5105C6.71383 56.3005 6.75283 56.0905 6.79483 55.8805C6.84283 55.6705 6.88183 55.4965 6.91183 55.3585L7.73083 51.8485H9.07183ZM13.939 58.2745H10.24V51.8485H13.939V52.9645H11.599V54.3776H13.777V55.4936H11.599V57.1496H13.939V58.2745ZM17.6342 51.8485C18.4922 51.8485 19.1402 51.9685 19.5782 52.2085C20.0162 52.4485 20.2351 52.8716 20.2351 53.4776C20.2351 53.8436 20.1482 54.1525 19.9742 54.4045C19.8062 54.6565 19.5631 54.8096 19.2451 54.8636V54.9085C19.4611 54.9505 19.6562 55.0256 19.8302 55.1336C20.0042 55.2416 20.1422 55.3976 20.2442 55.6016C20.3462 55.8056 20.3971 56.0756 20.3971 56.4116C20.3971 56.9936 20.1871 57.4496 19.7671 57.7796C19.3471 58.1096 18.7711 58.2745 18.0391 58.2745H15.6362V51.8485H17.6342ZM17.7871 54.3956C18.1831 54.3956 18.4562 54.3325 18.6062 54.2065C18.7622 54.0805 18.8402 53.8976 18.8402 53.6576C18.8402 53.4116 18.7502 53.2345 18.5702 53.1265C18.3902 53.0185 18.1051 52.9645 17.7151 52.9645H16.9951V54.3956H17.7871ZM16.9951 55.4756V57.1496H17.8862C18.2942 57.1496 18.5791 57.0716 18.7411 56.9156C18.9031 56.7536 18.9842 56.5405 18.9842 56.2765C18.9842 56.0365 18.9002 55.8445 18.7322 55.7005C18.5702 55.5505 18.2731 55.4756 17.8411 55.4756H16.9951ZM27.272 56.0065C27.272 56.4505 27.173 56.8525 26.975 57.2125C26.783 57.5665 26.489 57.8485 26.093 58.0585C25.703 58.2625 25.208 58.3645 24.608 58.3645C23.756 58.3645 23.108 58.1485 22.664 57.7165C22.22 57.2785 21.998 56.7025 21.998 55.9885V51.8485H23.357V55.7816C23.357 56.3096 23.465 56.6816 23.681 56.8976C23.897 57.1136 24.218 57.2216 24.644 57.2216C25.088 57.2216 25.409 57.1045 25.607 56.8705C25.811 56.6365 25.913 56.2705 25.913 55.7725V51.8485H27.272V56.0065ZM31.2038 54.4945L32.5447 51.8485H34.0118L31.8787 55.7725V58.2745H30.5287V55.8176L28.3958 51.8485H29.8718L31.2038 54.4945ZM43.075 51.8485L41.437 58.2745H39.889L39.0159 54.8996C38.9979 54.8336 38.9739 54.7345 38.9439 54.6025C38.9199 54.4705 38.8899 54.3265 38.8539 54.1705C38.8239 54.0145 38.797 53.8676 38.773 53.7296C38.749 53.5856 38.731 53.4745 38.719 53.3965C38.713 53.4745 38.695 53.5856 38.665 53.7296C38.641 53.8676 38.6139 54.0145 38.5839 54.1705C38.5539 54.3205 38.5239 54.4645 38.4939 54.6025C38.4639 54.7345 38.4399 54.8365 38.4219 54.9085L37.5579 58.2745H36.0099L34.3719 51.8485H35.713L36.5319 55.3585C36.5679 55.4965 36.607 55.6705 36.649 55.8805C36.691 56.0905 36.7299 56.3005 36.7659 56.5105C36.8019 56.7205 36.829 56.8976 36.847 57.0416C36.865 56.8916 36.8919 56.7145 36.9279 56.5105C36.9639 56.3005 36.9999 56.0996 37.0359 55.9076C37.0779 55.7096 37.1139 55.5565 37.1439 55.4485L38.0799 51.8485H39.367L40.303 55.4485C40.333 55.5505 40.3659 55.7005 40.4019 55.8985C40.4439 56.0965 40.483 56.3005 40.519 56.5105C40.555 56.7205 40.5819 56.8976 40.5999 57.0416C40.6179 56.8916 40.645 56.7145 40.681 56.5105C40.717 56.3005 40.7559 56.0905 40.7979 55.8805C40.8459 55.6705 40.885 55.4965 40.915 55.3585L41.7339 51.8485H43.075ZM49.9872 55.0525C49.9872 55.7185 49.8763 56.3005 49.6543 56.7985C49.4383 57.2905 49.1052 57.6745 48.6552 57.9505C48.2052 58.2265 47.6292 58.3645 46.9272 58.3645C46.2312 58.3645 45.6552 58.2265 45.1992 57.9505C44.7492 57.6745 44.4132 57.2876 44.1912 56.7896C43.9752 56.2916 43.8672 55.7096 43.8672 55.0436C43.8672 54.3776 43.9752 53.7985 44.1912 53.3065C44.4132 52.8145 44.7492 52.4336 45.1992 52.1636C45.6552 51.8876 46.2343 51.7496 46.9363 51.7496C47.6323 51.7496 48.2052 51.8876 48.6552 52.1636C49.1052 52.4336 49.4383 52.8176 49.6543 53.3156C49.8763 53.8076 49.9872 54.3865 49.9872 55.0525ZM45.2983 55.0525C45.2983 55.7245 45.4272 56.2556 45.6852 56.6456C45.9432 57.0296 46.3572 57.2216 46.9272 57.2216C47.5092 57.2216 47.9263 57.0296 48.1783 56.6456C48.4303 56.2556 48.5563 55.7245 48.5563 55.0525C48.5563 54.3745 48.4303 53.8436 48.1783 53.4596C47.9263 53.0756 47.5123 52.8836 46.9363 52.8836C46.3603 52.8836 45.9432 53.0756 45.6852 53.4596C45.4272 53.8436 45.2983 54.3745 45.2983 55.0525ZM59.4835 51.8485L57.8455 58.2745H56.2975L55.4244 54.8996C55.4064 54.8336 55.3824 54.7345 55.3524 54.6025C55.3284 54.4705 55.2984 54.3265 55.2624 54.1705C55.2324 54.0145 55.2055 53.8676 55.1815 53.7296C55.1575 53.5856 55.1395 53.4745 55.1275 53.3965C55.1215 53.4745 55.1035 53.5856 55.0735 53.7296C55.0495 53.8676 55.0224 54.0145 54.9924 54.1705C54.9624 54.3205 54.9324 54.4645 54.9024 54.6025C54.8724 54.7345 54.8484 54.8365 54.8304 54.9085L53.9664 58.2745H52.4184L50.7804 51.8485H52.1215L52.9404 55.3585C52.9764 55.4965 53.0155 55.6705 53.0575 55.8805C53.0995 56.0905 53.1384 56.3005 53.1744 56.5105C53.2104 56.7205 53.2375 56.8976 53.2555 57.0416C53.2735 56.8916 53.3004 56.7145 53.3364 56.5105C53.3724 56.3005 53.4084 56.0996 53.4444 55.9076C53.4864 55.7096 53.5224 55.5565 53.5524 55.4485L54.4884 51.8485H55.7755L56.7115 55.4485C56.7415 55.5505 56.7744 55.7005 56.8104 55.8985C56.8524 56.0965 56.8915 56.3005 56.9275 56.5105C56.9635 56.7205 56.9904 56.8976 57.0084 57.0416C57.0264 56.8916 57.0535 56.7145 57.0895 56.5105C57.1255 56.3005 57.1644 56.0905 57.2064 55.8805C57.2544 55.6705 57.2935 55.4965 57.3235 55.3585L58.1424 51.8485H59.4835Z" fill="black"/>
    <defs>
        <linearGradient id="paint0_linear" x1="17.5063" y1="9.41176" x2="67.3883" y2="21.4161" gradientUnits="userSpaceOnUse">
            <stop stop-color="#E62479"/>
            <stop offset="0.879902" stop-color="#F87AB5" stop-opacity="0.74"/>
        </linearGradient>
    </defs>
</svg>
