<svg width="100" height="100" viewBox="0 0 100 100" fill="none" xmlns="http://www.w3.org/2000/svg">
    <path d="M99.4279 32.6033L89.4531 22.6283V1.95312C89.4531 0.874414 88.5785 0 87.5 0H58.7262C57.6477 0 56.773 0.874414 56.773 1.95312C56.773 3.03184 57.6477 3.90625 58.7262 3.90625H85.5469V43.7221L49.9121 79.357L14.4531 43.898V3.90625H41.148C42.2266 3.90625 43.1012 3.03184 43.1012 1.95312C43.1012 0.874414 42.2266 0 41.148 0H12.5C11.4215 0 10.5469 0.874414 10.5469 1.95312V22.6283L0.57207 32.6033C0.205859 32.9695 0 33.4664 0 33.9844V90.2344C0 95.6191 4.38086 100 9.76562 100H90.2344C95.6191 100 100 95.6191 100 90.2344V33.9844C100 33.4664 99.7941 32.9695 99.4279 32.6033ZM96.0938 90.2344C96.0938 91.1377 95.8879 91.9939 95.5211 92.759L68.7779 66.0156L96.0938 38.6998V90.2344ZM89.4531 28.1527L95.2848 33.9844L89.4531 39.8158V28.1527ZM4.47891 92.759C4.11211 91.9939 3.90625 91.1379 3.90625 90.2344V38.8754L31.1342 66.1035L4.47891 92.759ZM10.5469 39.9916L4.62734 34.0723L10.5469 28.1527V39.9916ZM9.76562 96.0938C8.8623 96.0938 8.00605 95.8879 7.24121 95.5211L33.8965 68.8656L48.5311 83.5002C48.8975 83.8664 49.3941 84.0723 49.9121 84.0723C50.4301 84.0723 50.9268 83.8664 51.2932 83.5002L66.0156 68.7779L92.759 95.5213C91.9939 95.8881 91.1379 96.0939 90.2344 96.0939H9.76562V96.0938Z" fill="#2E2E2E"/>
    <path d="M49.9375 3.90625C50.4512 3.90625 50.9551 3.69727 51.3184 3.33398C51.6814 2.9707 51.8906 2.4668 51.8906 1.95312C51.8906 1.43945 51.6816 0.935547 51.3184 0.572266C50.9551 0.208984 50.4512 0 49.9375 0C49.4219 0 48.9199 0.208984 48.5566 0.572266C48.1936 0.935547 47.9844 1.43945 47.9844 1.95312C47.9844 2.4668 48.1934 2.9707 48.5566 3.33398C48.9199 3.69727 49.4219 3.90625 49.9375 3.90625Z" fill="#2E2E2E"/>
    <path d="M31.5242 23.6677C28.8744 28.4823 28.1773 34.0329 29.5619 39.2968C30.7611 43.8566 33.3502 47.7902 37.0498 50.6724C40.6117 53.4476 45.0486 55.0444 49.5428 55.1687C49.5613 55.1693 49.5795 55.1694 49.5976 55.1694C50.6514 55.1694 51.5197 54.3302 51.549 53.2702C51.5787 52.1921 50.7289 51.2937 49.6506 51.264C41.998 51.0525 35.291 45.7228 33.3394 38.3034C30.9892 29.3673 36.0502 20.1702 44.8611 17.3653C49.331 15.9423 54.0762 16.3614 58.2222 18.545C62.3601 20.7241 65.3853 24.3862 66.7439 28.8591C67.6094 32.1275 67.3287 35.1573 65.8076 38.9823C65.3738 40.0728 64.0271 42.6093 60.8943 42.6093C60.3988 42.6093 59.8974 42.3796 59.4824 41.9626C58.9258 41.4032 58.609 40.6134 58.6131 39.786V23.6384C58.6131 22.5597 57.7385 21.6853 56.6599 21.6853C55.5812 21.6853 54.7068 22.5597 54.7068 23.6384V24.2605C53.1822 22.9896 51.2885 22.264 49.1668 22.264C44.234 22.264 39.1316 26.5403 39.1316 33.6966C39.1316 36.8507 40.1312 39.8048 41.9463 42.0146C43.7861 44.255 46.3432 45.5398 48.9613 45.5398C51.4154 45.5398 53.626 44.4562 55.309 42.6495C55.6476 43.4171 56.1209 44.1222 56.7135 44.7177C57.867 45.8769 59.3517 46.5153 60.8943 46.5153C65.4076 46.5153 68.2666 43.3696 69.4373 40.4257C71.2732 35.8091 71.6043 31.9218 70.5099 27.8214C70.5045 27.8011 70.4986 27.7808 70.4926 27.7607C68.834 22.2646 65.1226 17.7642 60.0424 15.0888C54.9633 12.4138 49.151 11.9003 43.6762 13.6431C38.489 15.2944 34.1734 18.8544 31.5242 23.6677ZM48.9615 41.6335C45.6953 41.6335 43.0381 38.073 43.0381 33.6964C43.0381 28.9853 46.1543 26.17 49.167 26.17C52.4129 26.17 54.6799 29.2407 54.6799 33.6372C54.6797 38.0464 52.1144 41.6335 48.9615 41.6335Z" fill="#E62479"/>
</svg>
