<svg width="31" height="40" viewBox="0 0 31 40" fill="none" xmlns="http://www.w3.org/2000/svg">
    <path d="M29.2525 0H7.93534C7.61101 0 7.34821 0.262344 7.34821 0.585938C7.34821 0.909531 7.61101 1.17188 7.93534 1.17188H29.2525C29.5275 1.17188 29.7511 1.39508 29.7511 1.66937V3.01367C29.7511 3.28797 29.5275 3.51117 29.2525 3.51117C28.2171 3.51117 2.77971 3.51117 1.74653 3.51117C1.4716 3.51117 1.24795 3.28797 1.24795 3.01367V1.66945C1.24795 1.39516 1.4716 1.17195 1.74653 1.17195H5.74326C6.06759 1.17195 6.33038 0.909609 6.33038 0.586016C6.33038 0.262422 6.06759 7.8125e-05 5.74326 7.8125e-05H1.74653C0.824045 0 0.0735474 0.748984 0.0735474 1.66945V3.01375C0.0735474 3.85781 0.716719 4.6832 1.83789 4.6832V32.8223C1.83789 33.7428 2.58838 34.4917 3.51079 34.4917H14.9123V36.3333C14.1601 36.5802 13.6155 37.2873 13.6155 38.1195C13.6155 39.1563 14.4607 39.9998 15.4995 39.9998C16.5384 39.9998 17.3834 39.1562 17.3834 38.1195C17.3834 37.2873 16.8387 36.5801 16.0865 36.3333V34.4917H27.488C28.4105 34.4917 29.1609 33.7427 29.1609 32.8223V10.0142C29.1609 9.69063 28.8981 9.42828 28.5738 9.42828C28.2495 9.42828 27.9867 9.69063 27.9867 10.0142V32.8224C27.9867 33.0967 27.763 33.3199 27.4881 33.3199H3.51087C3.23594 33.3199 3.01228 33.0967 3.01228 32.8224V4.68328H27.9868V7.93086C27.9868 8.25445 28.2496 8.5168 28.5739 8.5168C28.8982 8.5168 29.161 8.25445 29.161 7.93086V4.68328H29.2525C30.1749 4.68328 30.9254 3.9343 30.9254 3.01383V1.66945C30.9254 0.748984 30.1749 0 29.2525 0ZM15.4996 37.4114C15.8909 37.4114 16.2093 37.7291 16.2093 38.1198C16.2093 38.5104 15.891 38.8281 15.4996 38.8281C15.1082 38.8281 14.7898 38.5104 14.7898 38.1198C14.7898 37.7291 15.1082 37.4114 15.4996 37.4114Z" fill="#2E2E2E"/>
    <path d="M14.5362 12.6096V11.1131H16.9598V10.2072H14.5362V8.82396H17.3406V7.84521H13.4177V13.5883H17.4137V12.6096H14.5362Z" fill="#E62479"/>
    <path d="M12.7952 17.0554V16.1999H9.92566V20.4183H10.902V18.7547H12.4619V17.9645H10.902V17.0554H12.7952Z" fill="#E62479"/>
    <path d="M20.9722 16.3247C20.6468 16.1642 20.5744 16.1999 18.6117 16.1999V20.4183H19.5882V19.0577C20.3538 19.0578 21.2875 19.2292 21.6986 18.1606C21.9853 17.4156 21.6106 16.6395 20.9722 16.3247ZM20.3858 18.2081H19.5881V17.0555C20.4322 17.0555 20.4083 17.0458 20.5168 17.0881C20.9663 17.2649 20.8892 18.2081 20.3858 18.2081Z" fill="#E62479"/>
    <path d="M7.58694 24.3496V24.9914H8.36249V27.0302H9.10015V24.9914H9.8721V24.3496H7.58694Z" fill="#E62479"/>
    <path d="M21.879 26.3884L23.0594 24.897V24.3496H21.009V24.9914H22.2082L20.9521 26.4828V27.0302H23.0821V26.3884H21.879Z" fill="#E62479"/>
    <path d="M16.7959 25.1992C16.2344 23.7721 14.1647 24.2353 14.1647 25.6862C14.1647 26.0412 14.3065 26.3787 14.5391 26.6282C15.5334 27.694 17.3495 26.6083 16.7959 25.1992ZM14.9138 25.6938C14.9138 24.7399 16.1433 24.7567 16.1433 25.6862C16.1433 26.6558 14.9138 26.6318 14.9138 25.6938Z" fill="#E62479"/>
    <path d="M23.2209 21.6779H7.77895C7.45463 21.6779 7.19183 21.9403 7.19183 22.2639C7.19183 22.5874 7.45463 22.8498 7.77895 22.8498H23.2209C23.5452 22.8498 23.808 22.5874 23.808 22.2639C23.808 21.9403 23.5452 21.6779 23.2209 21.6779Z" fill="#E62479"/>
    <path d="M23.2209 28.6609H7.77895C7.45471 28.6609 7.19183 28.9232 7.19183 29.2468C7.19183 29.5704 7.45463 29.8328 7.77895 29.8328H23.2209C23.5452 29.8328 23.808 29.5704 23.808 29.2468C23.808 28.9232 23.5452 28.6609 23.2209 28.6609Z" fill="#E62479"/>
</svg>
