<svg width="90" height="100" viewBox="0 0 90 100" fill="none" xmlns="http://www.w3.org/2000/svg">
    <path d="M54.783 34.8787C60.1333 36.3038 63.3203 41.79 61.8867 47.1082C61.4785 48.6224 61.688 50.2038 62.4765 51.5611C63.2651 52.9184 64.538 53.8895 66.0614 54.2953C66.5715 54.4311 67.0836 54.4959 67.5882 54.4959C70.1949 54.4959 72.5866 52.7644 73.2924 50.1458C76.4112 38.5765 69.479 26.6424 57.839 23.5424C54.6937 22.705 51.4508 24.5662 50.6078 27.6918C49.7654 30.817 51.6384 34.041 54.783 34.8787ZM54.4041 28.7029C54.5405 28.1965 54.8672 27.7734 55.3241 27.5113C55.6283 27.3367 55.9659 27.2477 56.3078 27.2477C56.4793 27.2477 56.652 27.2701 56.8222 27.3154C66.3689 29.8581 72.0549 39.6462 69.4967 49.1351C69.215 50.1801 68.1299 50.8024 67.0789 50.5225C66.5695 50.3868 66.1437 50.0622 65.88 49.6083C65.6163 49.1544 65.5464 48.6255 65.6828 48.1193C67.677 40.7207 63.2439 33.0887 55.8002 31.106C54.7488 30.8258 54.1223 29.7477 54.4041 28.7029Z" fill="#E62479"/>
    <path d="M61.9674 8.22887C58.8237 7.39161 55.5792 9.25283 54.7364 12.3784C54.3283 13.8924 54.5377 15.474 55.3263 16.8313C56.1148 18.1888 57.3881 19.1597 58.9113 19.5653C72.7572 23.253 81.0035 37.4493 77.2937 51.2112C76.8856 52.7253 77.095 54.3067 77.8836 55.664C78.6719 57.0214 79.945 57.9924 81.4684 58.398C81.9783 58.5338 82.4906 58.5986 82.9952 58.5986C85.6017 58.5986 87.9933 56.8673 88.6995 54.2487C94.0946 34.2356 82.1029 13.5913 61.9674 8.22887ZM84.9036 53.2374C84.6218 54.2827 83.5377 54.9051 82.4855 54.6248C81.9762 54.4891 81.5506 54.1647 81.2871 53.7108C81.2869 53.7108 81.2869 53.7108 81.2869 53.7106C81.0232 53.2567 80.9532 52.7279 81.0896 52.2216C85.3602 36.3794 75.8675 20.0372 59.9284 15.7921C58.877 15.512 58.2507 14.434 58.5325 13.3891C58.7687 12.5134 59.5684 11.9345 60.4399 11.9345C60.6085 11.9345 60.7798 11.9562 60.9506 12.0015C78.9924 16.8069 89.7377 35.305 84.9036 53.2374Z" fill="#E62479"/>
    <path d="M68.4451 68.1354C65.8374 63.6464 60.0417 62.1022 55.5249 64.6944L47.524 69.2856C47.1475 69.5018 46.7087 69.5596 46.2874 69.4473C45.8669 69.3354 45.5156 69.0672 45.2981 68.6926L27.2861 37.6845C27.0686 37.3097 27.0107 36.8734 27.1234 36.4554C27.236 36.0375 27.5056 35.6883 27.8825 35.4721L35.8832 30.8809C40.3997 28.2891 41.9528 22.5283 39.3453 18.0393L31.5959 4.69847C28.9884 0.209277 23.1924 -1.33399 18.6757 1.25746L15.9576 2.81733C0.718785 11.5619 -4.52096 30.9983 4.27692 46.1443L10.8969 57.5405C11.4394 58.4747 12.6409 58.7946 13.581 58.2553C14.5208 57.7161 14.8429 56.5217 14.3002 55.5875L7.68042 44.1913C1.36722 33.3232 3.29897 19.9367 11.5313 11.2293L24.3945 33.3736C23.9005 33.9728 23.535 34.6741 23.3274 35.4447C22.943 36.8704 23.1403 38.3594 23.8828 39.6377L41.8948 70.6458C42.6372 71.9239 43.836 72.8383 45.2706 73.2203C46.0458 73.4269 46.8396 73.4631 47.6087 73.3373L60.396 95.3511C55.9456 96.3992 51.2767 96.342 46.7347 95.1325C39.5152 93.2098 33.4811 88.6079 29.7441 82.1743L23.1421 70.8087C22.5993 69.8744 21.3978 69.5545 20.4579 70.0939C19.5181 70.6331 19.196 71.8276 19.7388 72.7617L26.3408 84.1273C30.6026 91.4644 37.4843 96.7125 45.7176 98.9053C48.467 99.6375 51.2568 99.9998 54.029 99.9998C59.5584 99.9998 65.0158 98.5583 69.9329 95.7368L72.651 94.1769C74.839 92.9213 76.4041 90.8941 77.0578 88.4686C77.7118 86.0432 77.3762 83.5097 76.1129 81.3353L68.4451 68.1354ZM17.9224 6.20014L20.6405 4.64027C21.9193 3.90633 23.4093 3.71161 24.8355 4.09128C26.2618 4.47114 27.454 5.38046 28.1924 6.65148L35.9418 19.9923C37.4658 22.6162 36.5582 25.9834 33.9183 27.4983L27.6192 31.113L14.4945 8.51856C15.563 7.67486 16.7058 6.89834 17.9224 6.20014ZM73.2614 87.458C72.8794 88.8756 71.9643 90.0605 70.6857 90.7945L67.9676 92.3544C66.7579 93.0485 65.511 93.6472 64.2359 94.1496L51.1908 71.6919L57.49 68.0772C60.1302 66.5625 63.5177 67.4648 65.0419 70.0884L72.7094 83.2885C73.4476 84.5595 73.6437 86.0403 73.2614 87.458Z" fill="#2E2E2E"/>
    <path d="M17.0408 62.21C16.522 62.21 16.017 62.4189 15.6496 62.7822C15.2841 63.1455 15.0758 63.6474 15.0758 64.163C15.0758 64.6766 15.2841 65.1805 15.6496 65.5437C16.017 65.907 16.524 66.116 17.0408 66.116C17.5575 66.116 18.0645 65.907 18.43 65.5437C18.7955 65.1805 19.0057 64.6766 19.0057 64.163C19.0057 63.6474 18.7955 63.1455 18.43 62.7822C18.0645 62.4187 17.5575 62.21 17.0408 62.21Z" fill="#2E2E2E"/>
</svg>
