<svg width="37" height="30" viewBox="0 0 37 30" fill="none" xmlns="http://www.w3.org/2000/svg">
    <path d="M36.2253 12.086C34.2602 5.08337 29.4123 0 24.6999 0C24.3214 0 23.9433 0.0328269 23.5749 0.0977353C23.366 0.134293 23.1833 0.256649 23.0702 0.434215C22.9575 0.612899 22.9257 0.830007 22.983 1.03294L23.953 4.49024C24.0466 4.82411 24.3697 5.0498 24.7055 5.03451L24.7827 5.03301C26.5303 5.03301 29.7242 7.64278 31.3524 13.4431C31.4168 13.6733 31.4778 13.9087 31.5366 14.1541C29.7088 13.2529 27.5284 13.0444 25.5539 13.5923C21.0995 14.8342 18.49 19.4546 19.7352 23.8923C20.7445 27.488 24.0642 30 27.8081 30C28.5707 30 29.3322 29.8952 30.0716 29.6889C33.009 28.8708 35.2175 26.4409 36.2905 22.8481C37.259 19.6068 37.2347 15.6843 36.2253 12.086Z" fill="#E62479"/>
    <path d="M5.27422 0.00074602C4.89647 0.00074602 4.51796 0.0328269 4.14994 0.0977353C3.94141 0.133547 3.75834 0.256649 3.64565 0.434215C3.53296 0.612899 3.50114 0.830007 3.55804 1.03294L4.52845 4.49024C4.62204 4.82411 4.93915 5.0498 5.28096 5.03451L5.35734 5.03301C7.10496 5.03301 10.2992 7.64278 11.9274 13.4431C11.9922 13.6748 12.0532 13.9102 12.1116 14.1541C10.2831 13.2529 8.10345 13.0444 6.12894 13.5923C1.67526 14.8342 -0.934947 19.4546 0.311005 23.8923C1.32035 27.488 4.64001 30 8.38386 30C9.14648 30 9.90798 29.8952 10.6478 29.6889C13.5848 28.8708 15.7933 26.4409 16.8667 22.8481C17.8348 19.6068 17.8109 15.684 16.8011 12.0853C14.8349 5.08337 9.98772 0.00074602 5.27422 0.00074602Z" fill="#E62479"/>
</svg>
