<svg width="50" height="32" viewBox="0 0 50 32" fill="none" xmlns="http://www.w3.org/2000/svg">
    <g clip-path="url(#clip0)">
        <rect width="50" height="32" rx="3" fill="#6974DE"/>
        <path d="M9.39601 14.4721C9.39601 14.1127 9.75541 13.933 10.2346 13.933C10.9534 13.933 11.9118 14.1726 12.6306 14.5919V12.3157C11.8519 12.0162 11.0133 11.8365 10.2346 11.8365C8.3178 11.8365 7 12.8548 7 14.5919C7 17.2275 10.594 16.7483 10.594 17.9463C10.594 18.3656 10.2346 18.5453 9.69551 18.5453C8.91681 18.5453 7.8985 18.1859 7.1198 17.7666V20.0428C8.0183 20.4022 8.85691 20.5819 9.69551 20.5819C11.6722 20.5819 12.99 19.6235 12.99 17.8864C13.0499 15.0112 9.39601 15.5503 9.39601 14.4721ZM24.3111 20.4022H26.7072V12.0162H24.3111V20.4022ZM16.1647 10.0395L13.8286 10.5187V18.0661C13.8286 19.5037 14.9068 20.522 16.2845 20.522C17.0632 20.522 17.6622 20.4022 17.9617 20.2225V18.3057C17.6622 18.4255 16.1647 18.8448 16.1647 17.4671V14.0528H17.9617V12.0162H16.1647V10.0395ZM21.1963 12.735L21.1364 12.0162H18.98V20.4022H21.376V14.7117C21.975 13.9929 22.9933 14.1127 23.2928 14.2325V12.0162C22.9933 11.8964 21.7953 11.7167 21.1963 12.735ZM24.3111 11.3573L26.7072 10.8781V8.90137L24.3111 9.38057V11.3573ZM43 16.2092C43 13.7533 41.802 11.8365 39.5258 11.8365C37.2496 11.8365 35.8719 13.7533 35.8719 16.2092C35.8719 19.0844 37.4892 20.522 39.8253 20.522C40.9634 20.522 41.802 20.2824 42.4609 19.8631V18.0062C41.802 18.3656 41.0832 18.5453 40.1248 18.5453C39.1664 18.5453 38.3877 18.1859 38.2679 17.0478H42.9401C43 16.928 43 16.4488 43 16.2092ZM38.2679 15.3107C38.2679 14.2325 38.9268 13.8132 39.5258 13.8132C40.1248 13.8132 40.7238 14.2325 40.7238 15.3107H38.2679ZM31.9784 11.8365C31.02 11.8365 30.4809 12.2558 30.1215 12.6152L30.0616 12.0162H27.9052V23.0977L30.3012 22.6784V19.9829C30.6606 20.2225 31.1398 20.5819 31.9784 20.5819C33.7155 20.5819 35.2729 19.2042 35.2729 16.1493C35.213 13.3939 33.6556 11.8365 31.9784 11.8365ZM31.3794 18.4255C30.8403 18.4255 30.4809 18.2458 30.2413 17.9463V14.4122C30.4809 14.1127 30.8403 13.933 31.3794 13.933C32.2779 13.933 32.8769 14.8914 32.8769 16.1493C32.8769 17.4671 32.2779 18.4255 31.3794 18.4255Z" fill="white"/>
    </g>
    <defs>
        <clipPath id="clip0">
            <rect width="50" height="32" fill="white"/>
        </clipPath>
    </defs>
</svg>
